<?xml version="1.0" encoding="UTF-8" standalone="no"?>
<svg
   version="1.0"
   width="464.15652pt"
   height="613.59113pt"
   viewBox="0 0 464.15652 613.59113"
   preserveAspectRatio="xMidYMid"
   id="svg33"
   xmlns="http://www.w3.org/2000/svg"
   xmlns:svg="http://www.w3.org/2000/svg">
  <defs
     id="defs33" />
  <g
     transform="matrix(0.1,0,0,-0.1,-472,690.09111)"
     fill="#000000"
     stroke="none"
     id="g33">
    <path
       d="m 6886,6879 c -135,-47 -239,-145 -312,-295 -25,-52 -48,-94 -50,-94 -2,0 -24,23 -50,50 -59,63 -169,119 -283,145 -82,19 -84,19 -98,0 -35,-49 -47,-118 -48,-277 0,-151 -1,-158 -24,-182 -31,-33 -36,-33 -51,4 -29,71 -173,172 -265,187 -30,5 -45,0 -91,-32 -170,-118 -229,-356 -139,-561 l 24,-53 -78,6 c -96,7 -189,-8 -295,-49 -121,-47 -126,-55 -126,-185 0,-179 45,-304 151,-417 l 59,-63 -67,-11 c -327,-54 -517,-409 -375,-700 43,-88 102,-146 195,-192 163,-80 365,-77 532,7 l 50,26 -41,12 c -122,36 -236,131 -293,243 -18,36 -39,63 -51,67 -28,9 -60,-20 -60,-54 0,-37 48,-127 98,-183 24,-26 40,-48 35,-49 -39,-4 -117,6 -167,22 -143,45 -220,152 -220,304 0,44 6,98 13,120 35,105 122,195 228,236 79,30 233,37 326,15 38,-9 70,-16 72,-16 2,0 5,34 7,75 l 3,74 -85,39 c -107,49 -160,88 -200,147 l -32,46 34,-5 c 18,-3 64,-8 101,-11 51,-5 87,-16 144,-45 100,-51 144,-60 362,-71 205,-10 268,-19 391,-56 273,-82 454,-241 566,-501 54,-124 75,-221 81,-369 3,-73 2,-133 -2,-133 -4,0 -35,26 -69,58 -34,31 -104,81 -154,111 -59,34 -109,72 -137,104 -52,60 -114,181 -145,287 -32,107 -74,186 -136,251 -56,57 -138,109 -206,127 l -38,10 7,-41 c 3,-23 12,-60 20,-81 7,-22 11,-41 9,-44 -3,-2 -25,5 -49,17 -50,24 -93,79 -103,130 -5,25 -15,37 -40,47 -28,12 -114,20 -114,11 0,-1 9,-21 20,-42 11,-22 37,-92 56,-155 20,-63 46,-135 59,-160 29,-56 116,-140 181,-173 47,-24 184,-60 193,-52 8,8 -23,68 -64,124 -23,32 -65,74 -94,95 -57,42 -65,59 -22,46 93,-26 193,-109 234,-192 47,-96 97,-211 94,-214 -6,-6 -212,44 -268,65 -212,80 -360,243 -416,457 -17,62 -22,71 -67,103 l -49,35 8,-70 c 10,-98 39,-205 76,-279 58,-119 181,-244 314,-320 l 49,-28 -64,-22 c -85,-29 -163,-69 -280,-145 -115,-74 -174,-103 -260,-126 -89,-24 -224,-24 -323,1 -90,22 -112,16 -112,-31 0,-23 7,-32 36,-47 104,-50 317,-61 441,-21 19,6 18,3 -5,-28 -39,-50 -57,-101 -57,-158 0,-45 2,-50 23,-50 34,1 101,34 131,66 31,34 61,109 71,178 11,68 45,102 177,174 145,78 240,105 373,105 119,1 195,-18 315,-75 149,-71 269,-214 299,-356 32,-151 -12,-702 -69,-866 -71,-206 -200,-283 -554,-331 -124,-17 -200,-41 -307,-96 -79,-41 -129,-42 -250,-5 -93,28 -193,34 -248,15 -49,-17 -37,-24 38,-21 61,3 80,-1 175,-39 58,-23 106,-46 106,-50 0,-4 -25,-17 -55,-28 -68,-26 -187,-28 -320,-6 -133,22 -189,19 -301,-16 -93,-28 -239,-53 -256,-43 -5,3 -8,1 -8,-4 0,-29 150,-29 256,0 75,20 225,30 240,16 8,-8 -139,-182 -176,-208 -16,-12 -58,-34 -92,-51 l -63,-30 49,6 c 81,9 144,45 235,134 46,45 96,88 111,96 21,11 61,14 159,12 72,-1 131,-3 131,-5 0,-12 -85,-125 -103,-136 -38,-25 -137,-48 -188,-44 -27,1 -49,0 -49,-5 0,-15 53,-27 126,-27 41,0 74,-4 74,-9 0,-5 -24,-34 -54,-64 -64,-65 -161,-117 -267,-142 -92,-22 -109,-35 -43,-35 68,0 175,25 241,55 31,14 57,25 59,25 8,0 3,-36 -11,-75 -17,-46 -13,-55 14,-31 21,19 51,96 51,129 0,11 23,44 50,74 28,30 78,95 111,144 69,100 162,191 238,233 28,15 51,25 51,23 0,-3 -7,-22 -16,-43 -9,-22 -27,-82 -40,-134 -33,-132 -66,-190 -147,-266 -83,-77 -65,-88 34,-22 82,55 129,124 170,247 41,123 61,163 110,216 51,55 101,72 243,81 l 109,7 -24,-44 c -38,-70 -108,-133 -172,-158 -32,-11 -67,-21 -77,-21 -11,0 -20,-5 -20,-11 0,-19 129,-5 185,20 36,15 78,50 145,120 91,94 98,99 179,127 46,16 109,46 139,67 l 55,38 -6,-46 c -15,-106 -91,-213 -206,-289 -86,-57 -138,-80 -284,-121 -159,-46 -217,-74 -285,-139 -51,-49 -111,-140 -100,-151 2,-3 32,23 66,56 38,36 87,72 125,89 72,34 200,64 195,46 -2,-6 -23,-48 -46,-93 -60,-112 -109,-165 -190,-205 l -67,-33 -179,2 c -199,3 -280,-9 -365,-52 -51,-25 -131,-90 -131,-105 0,-4 39,12 88,37 121,62 179,70 369,53 l 151,-14 -44,-57 c -50,-66 -79,-79 -173,-79 -89,0 -135,-15 -182,-57 -22,-20 -38,-37 -36,-40 2,-2 31,9 63,24 54,25 68,27 158,25 55,-1 101,-4 102,-5 7,-7 -28,-164 -46,-203 -11,-26 -17,-50 -14,-53 16,-16 72,73 93,146 38,134 52,163 100,211 26,26 75,63 110,82 34,19 90,54 124,77 l 62,43 3,-70 c 5,-127 -28,-192 -149,-294 -84,-70 -129,-144 -135,-223 l -5,-48 25,52 c 38,80 71,118 161,183 81,58 123,103 146,154 7,14 15,26 18,26 10,0 61,-136 61,-160 0,-33 -18,-59 -91,-137 -74,-79 -99,-135 -99,-225 0,-59 15,-63 24,-6 12,78 52,144 128,209 63,54 72,59 81,44 13,-23 2,-163 -17,-235 -9,-30 -13,-56 -11,-59 17,-16 72,113 87,204 14,86 3,150 -52,317 -27,81 -54,177 -60,213 -19,118 13,229 89,308 28,31 97,77 113,77 2,0 3,-40 3,-89 0,-85 2,-92 44,-175 51,-101 50,-116 -6,-208 -30,-49 -38,-72 -41,-122 -2,-36 2,-73 9,-91 12,-29 13,-28 19,41 4,50 13,82 31,110 65,105 84,133 90,134 3,0 18,-22 32,-49 22,-40 45,-137 47,-201 0,-11 4,-9 12,5 7,11 12,54 13,95 0,88 -18,140 -75,216 -90,120 -115,209 -85,309 18,62 33,81 148,178 58,49 124,136 150,198 l 14,34 7,-40 c 4,-22 14,-64 23,-94 16,-61 11,-126 -14,-176 -9,-16 -51,-66 -94,-111 -81,-85 -104,-131 -97,-197 4,-31 4,-30 31,28 27,57 62,105 78,105 4,0 22,-30 40,-67 35,-70 43,-132 25,-183 l -8,-25 23,22 c 33,33 38,124 10,188 -32,73 -28,114 15,156 20,18 44,49 53,68 l 18,34 27,-45 c 39,-68 66,-151 66,-207 0,-95 -32,-166 -160,-357 -122,-182 -163,-230 -283,-337 -90,-81 -141,-158 -161,-246 -9,-39 -16,-83 -16,-100 0,-55 17,-41 34,27 10,37 29,87 43,112 27,45 110,140 123,140 4,0 11,-19 17,-42 6,-24 21,-70 33,-103 21,-58 23,-104 5,-147 -13,-33 13,-18 29,16 20,42 20,94 1,166 -8,30 -15,76 -15,103 0,42 5,53 41,92 23,25 45,45 49,45 4,0 10,-28 13,-62 4,-52 17,-86 71,-190 52,-99 69,-144 79,-205 l 14,-78 13,39 c 20,61 7,154 -36,249 -57,130 -66,164 -61,243 3,53 11,84 30,118 26,47 138,195 147,195 3,0 24,-40 48,-90 40,-85 42,-92 31,-132 -6,-23 -24,-62 -39,-87 -41,-65 -60,-114 -60,-157 0,-62 16,-72 24,-15 3,28 15,60 24,72 l 18,23 37,-44 c 22,-25 45,-68 56,-104 l 19,-60 1,52 c 1,41 -6,65 -34,117 -39,74 -42,92 -20,124 9,12 21,38 28,57 l 12,36 61,-46 c 61,-44 104,-96 122,-146 31,-81 19,-220 -28,-325 -40,-91 -2,-63 49,36 54,105 64,215 30,321 -20,58 -31,73 -129,169 -141,137 -174,205 -156,322 11,75 18,76 77,17 30,-30 85,-80 122,-112 72,-63 112,-126 123,-196 11,-69 27,-48 22,28 -7,96 -35,147 -137,249 -101,101 -123,142 -150,272 -11,57 -37,135 -64,195 -25,55 -52,125 -61,154 -17,57 -22,151 -8,151 4,0 19,-24 34,-52 44,-91 112,-172 199,-239 110,-85 123,-109 121,-216 -2,-104 10,-136 75,-191 28,-23 56,-55 63,-72 7,-16 16,-28 20,-25 16,10 -9,77 -43,114 -57,63 -59,72 -51,182 3,54 10,99 14,99 16,0 103,-65 125,-94 53,-70 70,-124 69,-226 -1,-87 -5,-109 -54,-255 -66,-201 -76,-303 -40,-413 22,-70 57,-138 66,-130 2,3 -3,36 -12,74 -16,67 -23,219 -11,231 4,3 40,-24 81,-61 78,-70 110,-121 122,-194 10,-66 24,-60 24,10 -1,85 -25,135 -109,223 -37,40 -71,85 -75,100 -5,19 1,52 20,107 15,43 30,78 34,78 3,0 16,-17 28,-38 28,-51 81,-104 151,-151 71,-48 103,-85 143,-165 34,-67 47,-61 28,12 -18,74 -52,122 -145,207 -112,101 -137,148 -143,268 -2,48 -1,87 3,87 4,0 24,-13 44,-28 20,-16 70,-48 111,-72 152,-87 197,-141 232,-277 23,-90 46,-139 82,-172 37,-34 41,-22 12,35 -22,43 -46,146 -46,195 0,13 16,17 86,23 88,6 94,5 223,-51 33,-15 -12,38 -55,63 -38,23 -63,28 -147,34 -56,3 -111,12 -122,19 -18,12 -95,103 -95,113 0,2 67,10 148,18 184,16 243,8 362,-52 112,-57 110,-56 70,-13 -44,47 -89,76 -165,105 -56,22 -74,24 -275,24 l -215,1 -57,28 c -32,16 -77,48 -100,71 -40,40 -154,233 -144,243 10,10 171,-38 215,-64 25,-14 77,-56 115,-92 72,-69 77,-63 23,27 -62,103 -170,169 -365,222 -132,35 -228,81 -308,147 -78,63 -99,88 -134,158 -28,57 -54,145 -42,145 3,0 20,-11 39,-26 34,-26 124,-69 205,-98 37,-14 66,-37 129,-107 99,-108 155,-139 262,-147 80,-5 82,7 4,28 -79,21 -151,81 -206,173 l -23,38 108,-7 c 144,-8 178,-18 229,-65 56,-52 85,-103 120,-209 15,-47 38,-105 50,-130 38,-75 161,-180 212,-180 12,0 -4,20 -47,59 -81,73 -111,126 -150,270 -17,62 -37,126 -45,141 -8,16 -15,32 -15,35 0,3 28,-9 61,-26 79,-43 158,-121 236,-236 35,-50 85,-115 112,-145 29,-31 51,-67 56,-88 9,-41 40,-106 56,-115 19,-12 21,2 5,34 -9,16 -16,42 -16,56 v 25 l 41,-20 c 58,-30 183,-60 248,-60 68,0 57,11 -34,35 -90,23 -144,47 -202,86 -48,34 -123,106 -123,119 0,5 30,8 68,7 37,-1 85,5 107,13 l 40,15 -81,6 c -120,9 -181,40 -233,119 -23,34 -41,62 -41,63 0,1 62,2 138,2 100,0 144,-4 162,-14 14,-8 64,-52 112,-98 92,-89 141,-117 223,-128 57,-8 53,5 -6,24 -53,17 -123,66 -155,109 -16,20 -51,61 -78,90 -27,29 -46,55 -43,58 14,15 167,5 247,-15 81,-20 201,-28 234,-15 35,13 13,24 -49,24 -45,0 -93,9 -157,30 -120,40 -205,46 -337,26 -134,-20 -247,-20 -308,0 -86,28 -84,35 24,79 85,35 108,40 175,40 43,0 78,3 78,7 0,3 -14,11 -31,17 -54,19 -144,13 -242,-16 -127,-37 -174,-35 -267,12 -111,56 -170,74 -320,95 -312,45 -424,107 -504,274 -55,113 -93,366 -103,676 -6,204 2,261 53,362 43,85 154,188 254,236 248,119 467,103 722,-50 127,-77 134,-84 147,-164 7,-38 20,-87 30,-109 22,-50 79,-101 128,-114 66,-19 66,-18 61,59 -3,58 -9,76 -36,115 -18,25 -32,47 -32,50 0,2 15,-1 33,-6 17,-5 75,-12 127,-16 99,-6 224,12 298,42 30,13 33,18 30,52 -4,48 -25,52 -117,26 -46,-12 -96,-18 -166,-17 -126,1 -225,32 -346,105 -162,100 -271,157 -340,179 -38,12 -69,24 -69,25 0,1 30,20 67,41 92,53 200,158 273,265 78,114 125,144 221,143 53,0 72,-5 100,-25 l 34,-24 -69,-7 c -70,-7 -156,-33 -156,-47 0,-10 63,-51 103,-69 15,-6 55,-16 90,-22 110,-17 230,20 323,102 40,36 38,40 -42,93 -151,100 -427,124 -566,48 -36,-19 -66,-50 -114,-114 -112,-150 -220,-235 -362,-285 -82,-28 -252,-65 -252,-54 0,20 93,215 120,253 17,24 53,60 79,80 52,40 139,82 149,73 3,-3 -23,-32 -58,-64 -63,-56 -140,-161 -140,-190 0,-24 94,-6 177,33 86,40 151,102 191,182 31,60 69,209 58,221 -10,10 -235,-25 -309,-48 -131,-41 -218,-132 -273,-286 -67,-189 -131,-271 -276,-356 -50,-29 -119,-79 -154,-111 l -63,-58 -7,27 c -11,43 4,221 26,311 38,157 114,289 230,396 127,118 246,162 510,187 136,13 256,40 332,73 79,35 98,57 98,112 0,25 -5,45 -10,45 -6,0 -46,-18 -90,-40 -103,-52 -176,-69 -329,-77 l -125,-6 70,79 c 38,43 90,106 115,139 116,151 321,267 535,304 108,18 222,8 316,-28 53,-20 57,-24 63,-61 10,-62 -13,-173 -52,-252 -28,-55 -58,-92 -135,-167 -76,-74 -101,-104 -109,-135 l -11,-41 -24,30 c -27,34 -28,40 -12,102 9,38 29,65 104,143 85,89 94,103 113,166 11,38 22,89 24,113 l 5,43 -60,-6 c -131,-15 -226,-74 -273,-169 -21,-44 -27,-76 -35,-186 -5,-76 -18,-165 -30,-208 -12,-41 -20,-77 -17,-79 2,-3 15,-1 28,4 13,5 106,13 205,17 200,8 265,0 346,-41 198,-100 269,-354 147,-530 -52,-75 -175,-134 -282,-134 h -49 l 22,28 c 121,157 146,247 69,247 -31,0 -36,-5 -69,-64 -62,-114 -154,-188 -285,-232 l -50,-16 40,-21 c 174,-88 410,-90 568,-4 56,30 137,112 166,170 153,299 -44,666 -384,717 -41,7 -58,18 -36,27 19,7 105,117 131,169 47,92 63,163 63,279 0,66 -4,114 -12,128 -16,31 -114,76 -221,103 -66,17 -103,20 -172,17 -48,-3 -88,-5 -88,-4 0,0 14,39 30,86 80,229 -6,459 -205,547 -64,28 -211,23 -297,-10 -36,-14 -77,-33 -91,-41 l -24,-16 -10,83 c -11,87 -39,163 -94,249 l -31,48 -41,-21 c -73,-37 -163,-106 -220,-169 l -55,-61 -22,65 c -37,113 -130,234 -225,294 -114,72 -294,94 -419,51 z m 177,-170 c 114,-199 80,-431 -95,-642 -111,-134 -191,-243 -228,-312 -19,-36 -39,-66 -45,-67 -14,-4 -71,104 -95,182 -28,85 -37,254 -20,346 7,38 32,125 56,193 67,195 145,295 272,347 89,37 110,31 155,-47 z m 258,-57 c 88,-96 129,-226 129,-405 -1,-144 -51,-334 -118,-447 l -27,-45 -8,55 c -5,30 -18,87 -30,125 -19,60 -26,70 -47,73 -14,2 -34,-3 -44,-11 -19,-14 -19,-16 -1,-100 40,-190 2,-326 -120,-433 -131,-113 -195,-177 -232,-231 -31,-45 -38,-51 -44,-36 -14,35 -9,262 7,336 26,122 100,255 218,397 58,69 119,148 136,177 108,177 135,381 74,561 -13,40 -24,75 -24,78 0,16 89,-48 131,-94 z M 6241,6545 c 111,-39 197,-129 220,-230 12,-55 5,-185 -11,-185 -5,0 -14,24 -20,54 -17,84 -49,137 -104,174 -76,50 -79,48 -74,-60 6,-128 40,-201 140,-293 69,-63 73,-70 95,-147 13,-45 46,-129 72,-187 27,-58 54,-122 59,-141 8,-26 23,-470 17,-470 -9,0 -334,203 -373,232 -174,134 -262,310 -262,522 0,153 39,260 131,362 39,43 49,61 44,78 -11,37 -18,211 -11,259 8,52 13,54 77,32 z m 1624,-80 c 22,-75 15,-165 -19,-237 -27,-56 -80,-127 -90,-118 -3,3 1,26 8,50 18,59 31,190 19,190 -19,0 -79,-52 -105,-92 -16,-23 -35,-64 -43,-92 -18,-59 -32,-276 -19,-276 16,0 163,78 210,112 24,17 78,71 118,118 111,131 207,183 336,183 82,0 123,-18 175,-75 58,-65 79,-133 73,-234 -10,-145 -89,-249 -251,-329 -53,-27 -99,-46 -101,-44 -3,3 0,25 5,49 7,28 8,115 5,230 -6,180 -6,187 17,242 l 24,57 -31,-6 c -45,-8 -78,-27 -114,-64 -37,-38 -42,-84 -17,-165 53,-171 13,-368 -109,-538 -59,-82 -185,-203 -271,-258 -110,-72 -250,-157 -253,-153 -2,1 2,33 9,70 15,87 7,276 -16,375 l -18,75 -44,-50 c -30,-34 -42,-56 -39,-70 14,-59 17,-171 7,-254 -17,-139 -54,-236 -144,-386 -44,-71 -94,-161 -112,-199 l -32,-68 -63,128 c -91,188 -104,227 -104,314 -1,143 62,262 207,389 302,265 411,440 467,751 27,155 43,204 85,275 41,67 91,123 149,166 37,27 40,28 52,11 7,-10 20,-44 29,-77 z M 5744,6276 c 50,-21 105,-74 133,-130 29,-58 31,-92 19,-301 -8,-116 -6,-140 13,-220 27,-111 74,-209 146,-302 30,-40 55,-74 55,-76 0,-2 -30,0 -67,4 -38,5 -97,8 -133,8 l -65,1 -25,47 c -90,169 -230,254 -421,254 -122,0 -169,-8 -169,-30 0,-9 12,-43 25,-76 30,-72 29,-65 8,-65 -38,0 -97,23 -119,45 -20,20 -24,34 -24,89 0,75 5,80 100,112 39,13 86,18 165,19 131,0 205,-20 358,-96 54,-28 101,-48 103,-46 4,4 -22,127 -28,132 -2,1 -28,18 -58,37 -73,46 -139,119 -176,193 -26,53 -29,71 -29,150 0,103 17,145 87,221 44,48 53,51 102,30 z m -167,-892 c 57,-27 137,-99 127,-115 -12,-19 -151,60 -204,116 l -23,25 h 22 c 12,0 47,-12 78,-26 z"
       id="path1" />
    <path
       d="m 6881,6619 c -17,-30 -36,-72 -42,-94 -16,-57 -6,-155 22,-211 26,-56 87,-126 100,-118 5,3 24,33 41,67 25,49 32,78 36,140 4,71 2,82 -26,140 -17,34 -46,77 -66,96 l -34,33 z"
       id="path2" />
    <path
       d="m 6697,6270 c -65,-76 -79,-200 -32,-295 36,-75 49,-84 80,-55 43,40 85,137 85,194 0,68 -59,196 -91,196 -4,0 -23,-18 -42,-40 z"
       id="path3" />
    <path
       d="m 7313,6300 c -37,-15 -55,-77 -37,-124 9,-22 46,-20 78,5 20,16 26,29 26,59 0,22 -7,45 -16,54 -17,18 -20,18 -51,6 z"
       id="path4" />
    <path
       d="m 6994,5721 c -43,-20 -85,-66 -104,-115 -11,-31 -18,-112 -9,-120 10,-10 77,15 116,43 46,33 78,94 88,164 7,47 7,47 -21,47 -16,0 -48,-9 -70,-19 z"
       id="path5" />
    <path
       d="m 6130,6027 c 0,-80 108,-155 165,-114 26,20 13,78 -26,111 -25,21 -41,26 -85,26 -49,0 -54,-2 -54,-23 z"
       id="path6" />
    <path
       d="m 6096,5812 c -8,-25 10,-158 29,-212 22,-63 68,-131 124,-183 52,-49 130,-101 138,-93 12,11 -31,162 -66,232 -21,40 -34,74 -29,74 18,0 96,-82 121,-127 14,-27 37,-89 52,-138 14,-49 27,-91 30,-93 8,-9 27,53 36,120 29,204 -86,368 -296,423 -82,21 -132,20 -139,-3 z"
       id="path7" />
    <path
       d="m 8340,6163 c -79,-90 -101,-206 -59,-317 11,-31 25,-58 30,-62 15,-9 63,40 95,99 25,45 29,62 29,132 0,68 -5,88 -28,133 -15,28 -29,52 -31,52 -2,0 -18,-17 -36,-37 z"
       id="path8" />
    <path
       d="m 7900,5910 c -26,-51 -25,-99 3,-140 36,-54 54,-60 83,-27 19,22 24,39 24,82 0,46 -5,59 -31,90 -17,19 -37,35 -45,35 -7,0 -23,-18 -34,-40 z"
       id="path9" />
    <path
       d="m 7693,5800 c -119,-94 -182,-242 -169,-394 7,-73 42,-169 60,-163 6,2 26,32 44,68 27,55 46,118 68,228 9,43 26,6 31,-66 3,-41 -1,-93 -10,-130 l -14,-62 40,31 c 47,38 93,107 108,163 6,22 9,75 7,118 -4,67 -11,90 -48,162 -23,47 -48,85 -55,85 -7,0 -35,-18 -62,-40 z"
       id="path10" />
    <path
       d="m 7172,5288 c -23,-28 -18,-74 9,-88 52,-28 106,28 74,76 -17,26 -65,33 -83,12 z"
       id="path11" />
    <path
       d="m 7055,5129 c -80,-88 -102,-207 -56,-301 34,-70 46,-77 82,-42 16,15 42,53 56,83 43,88 32,203 -27,278 l -18,23 z"
       id="path12" />
    <path
       d="m 5674,6145 c -23,-49 -28,-74 -28,-135 0,-94 26,-149 101,-213 21,-19 22,-19 44,25 14,28 24,68 27,114 6,93 -15,158 -73,221 l -43,48 z"
       id="path13" />
    <path
       d="m 6445,6806 c -35,-35 -35,-97 0,-131 29,-30 56,-32 80,-5 24,27 24,94 -1,121 -35,39 -52,42 -79,15 z"
       id="path14" />
    <path
       d="m 7571,6801 c -25,-23 -31,-37 -31,-70 0,-45 26,-81 58,-81 33,0 65,45 65,90 0,29 -7,48 -23,65 -29,31 -31,31 -69,-4 z"
       id="path15" />
    <path
       d="m 8076,6574 c -21,-21 -20,-57 2,-77 23,-21 41,-21 70,-1 24,17 30,62 10,82 -17,17 -64,15 -82,-4 z"
       id="path16" />
    <path
       d="m 5878,6509 c -21,-12 -24,-69 -6,-87 22,-22 66,-14 85,14 15,24 15,29 2,53 -16,28 -53,38 -81,20 z"
       id="path17" />
    <path
       d="m 5225,5984 c -32,-32 7,-115 60,-128 33,-8 72,9 80,34 22,69 -90,144 -140,94 z"
       id="path18" />
    <path
       d="m 8764,5988 c -52,-24 -63,-111 -18,-129 41,-15 89,5 108,45 20,43 20,60 0,80 -17,18 -58,20 -90,4 z"
       id="path19" />
    <path
       d="m 8305,5451 c -47,-12 -86,-41 -116,-90 -36,-57 -27,-71 48,-71 77,0 146,39 179,102 21,40 18,46 -23,57 -42,12 -45,12 -88,2 z"
       id="path20" />
    <path
       d="m 4846,5225 c -61,-21 -64,-29 -30,-77 49,-70 145,-88 205,-39 l 22,18 -23,38 c -14,23 -39,45 -64,56 -49,22 -59,22 -110,4 z"
       id="path21" />
    <path
       d="m 9125,5221 c -46,-21 -78,-62 -73,-94 4,-30 70,-53 123,-43 42,8 115,73 115,102 0,16 -73,54 -105,54 -11,0 -38,-9 -60,-19 z"
       id="path22" />
    <path
       d="m 6366,4901 c -37,-41 12,-121 74,-121 34,0 53,22 53,62 0,62 -88,102 -127,59 z"
       id="path23" />
    <path
       d="m 7617,4842 c -22,-24 -21,-55 1,-75 36,-33 92,-8 92,41 0,47 -61,69 -93,34 z"
       id="path24" />
    <path
       d="m 5161,4831 c -58,-22 -138,-70 -165,-100 -16,-17 -15,-20 21,-51 20,-18 67,-47 103,-64 60,-29 73,-31 171,-31 101,0 109,1 174,35 38,19 70,40 72,46 6,20 -87,46 -184,51 -51,3 -90,9 -88,14 8,13 97,39 160,47 l 60,8 -59,28 c -78,39 -186,46 -265,17 z"
       id="path25" />
    <path
       d="m 6506,4668 c -19,-72 0,-160 48,-223 23,-29 96,-75 144,-90 21,-6 22,-4 22,68 0,85 -15,129 -62,182 -28,32 -113,85 -137,85 -5,0 -11,-10 -15,-22 z"
       id="path26" />
    <path
       d="m 7515,4671 c -96,-44 -145,-114 -153,-222 -7,-100 0,-106 76,-68 66,33 106,75 128,136 20,58 17,174 -5,173 -3,0 -24,-9 -46,-19 z"
       id="path27" />
    <path
       d="m 4932,4568 c -15,-15 -15,-43 -2,-69 7,-13 21,-19 45,-19 35,0 55,20 55,54 0,38 -70,62 -98,34 z"
       id="path28" />
    <path
       d="m 9064,4555 c -15,-23 -15,-27 0,-50 11,-17 26,-25 44,-25 35,0 52,16 52,50 0,34 -17,50 -52,50 -18,0 -33,-8 -44,-25 z"
       id="path29" />
    <path
       d="m 5401,4467 c -30,-12 -56,-28 -59,-35 -6,-19 76,-94 134,-122 71,-35 189,-35 259,0 27,14 51,30 53,37 5,19 -76,93 -131,119 -70,32 -179,33 -256,1 z"
       id="path30" />
    <path
       d="m 8455,4477 c -78,-31 -175,-113 -160,-137 18,-29 100,-53 180,-54 98,0 155,24 230,98 l 50,49 -60,28 c -49,23 -73,28 -135,28 -41,0 -88,-6 -105,-12 z"
       id="path31" />
    <path
       d="m 5969,4116 c -131,-35 -237,-146 -275,-288 -23,-88 -23,-88 49,-88 129,1 255,43 344,116 51,42 101,138 110,213 6,53 6,53 -18,46 -49,-14 -134,-72 -206,-141 -41,-38 -76,-67 -78,-63 -9,14 49,112 97,164 53,58 51,61 -23,41 z"
       id="path32" />
    <path
       d="m 8086,4077 c 48,-52 110,-155 99,-165 -2,-3 -40,29 -83,69 -73,69 -145,117 -201,134 -24,7 -24,7 -17,-46 10,-73 46,-149 95,-198 79,-79 221,-130 360,-131 h 64 l -7,47 c -22,160 -164,310 -321,339 l -40,7 z"
       id="path33" />
  </g>
</svg>
